<svg width="14.430664" height="16.000000" viewBox="0 0 14.4307 16" fill="none" xmlns="http://www.w3.org/2000/svg" xmlns:xlink="http://www.w3.org/1999/xlink">
	<desc>
			Created with Pixso.
	</desc>
	<defs/>
	<path id="Vector" d="M0 5.77777L0 0.888916C0 0.653137 0.0761719 0.427063 0.210938 0.260376C0.34668 0.0936279 0.530273 0 0.72168 0L13.709 0C13.9004 0 14.084 0.0936279 14.2197 0.260376C14.3545 0.427063 14.4307 0.653137 14.4307 0.888916L14.4307 5.77777C13.9521 5.77777 13.4932 6.0119 13.1553 6.42865C12.8174 6.8454 12.627 7.41064 12.627 8C12.627 8.58936 12.8174 9.1546 13.1553 9.57135C13.4932 9.9881 13.9521 10.2222 14.4307 10.2222L14.4307 15.1111C14.4307 15.3469 14.3545 15.5729 14.2197 15.7396C14.084 15.9064 13.9004 16 13.709 16L0.72168 16C0.530273 16 0.34668 15.9064 0.210938 15.7396C0.0761719 15.5729 0 15.3469 0 15.1111L0 10.2222C0.478516 10.2222 0.9375 9.9881 1.27539 9.57135C1.61426 9.1546 1.80371 8.58936 1.80371 8C1.80371 7.41064 1.61426 6.8454 1.27539 6.42865C0.9375 6.0119 0.478516 5.77777 0 5.77777ZM8.6582 1.77777L1.44336 1.77777L1.44336 4.41602C1.98535 4.74695 2.44141 5.25781 2.75977 5.89105C3.0791 6.52435 3.24805 7.25476 3.24805 8C3.24805 8.74524 3.0791 9.47565 2.75977 10.1089C2.44141 10.7422 1.98535 11.2531 1.44336 11.584L1.44336 14.2222L8.6582 14.2222L8.6582 1.77777ZM10.1016 1.77777L10.1016 14.2222L12.9873 14.2222L12.9873 11.584C12.4453 11.2531 11.9893 10.7422 11.6709 10.1089C11.3516 9.47565 11.1826 8.74524 11.1826 8C11.1826 7.25476 11.3516 6.52435 11.6709 5.89105C11.9893 5.25781 12.4453 4.74695 12.9873 4.41602L12.9873 1.77777L10.1016 1.77777Z" fill="#101010" fill-opacity="1.000000" fill-rule="nonzero"/>
</svg>
