<svg width="255.000000" height="21.000000" viewBox="0 0 255 21" fill="none" xmlns="http://www.w3.org/2000/svg" xmlns:xlink="http://www.w3.org/1999/xlink">
	<desc>
			Created with Pixso.
	</desc>
	<defs/>
	<path id="Vector" d="M251 11L247 7.24976L248.334 6L251 8.50049L253.666 6L255 7.24976L251 11Z" fill="#101010" fill-opacity="1.000000" fill-rule="nonzero"/>
	<path id="Выбрать модель телефона" d="M38.1738 10.5544Q39.2395 10.8108 39.7852 11.4626Q40.3345 12.1145 40.3345 13.1362Q40.3345 14.4985 39.3347 15.2493Q38.3386 16 36.4343 16L31.6333 16L31.6333 5.50073L36.1487 5.50073Q37.8735 5.50073 38.8403 6.2002Q39.8108 6.896 39.8108 8.19971Q39.8108 9.05664 39.3823 9.65723Q38.9539 10.2542 38.1738 10.5544ZM33.1201 10.1187L36.0461 10.1187Q37.1411 10.1187 37.7161 9.68652Q38.2947 9.25073 38.2947 8.40845Q38.2947 7.56982 37.7087 7.12671Q37.1265 6.68359 36.0461 6.68359L33.1201 6.68359L33.1201 10.1187ZM36.405 14.8135Q38.8184 14.8135 38.8184 13.0154Q38.8184 12.1145 38.2104 11.6897Q37.6062 11.2612 36.405 11.2612L33.1201 11.2612L33.1201 14.8135L36.405 14.8135ZM46.1855 10.7485Q47.6833 10.7632 48.478 11.4407Q49.2763 12.1145 49.2763 13.345Q49.2763 14.634 48.412 15.3335Q47.5514 16.0293 45.9438 16.0146L42.6003 16L42.6003 8.04956L44.0395 8.04956L44.0395 10.7339L46.1855 10.7485ZM50.4592 8.04956L51.8984 8.04956L51.8984 16L50.4592 16L50.4592 8.04956ZM45.8412 14.9197Q46.8154 14.9343 47.3171 14.5315Q47.8188 14.125 47.8188 13.3303Q47.8188 12.5503 47.3244 12.1914Q46.83 11.8289 45.8412 11.8142L44.0395 11.7849L44.0395 14.905L45.8412 14.9197ZM58.7556 8.32056Q59.8652 8.32056 60.7331 8.81494Q61.6047 9.30933 62.0917 10.1882Q62.5788 11.0635 62.5788 12.1914Q62.5788 13.345 62.0624 14.2385Q61.5461 15.1284 60.6086 15.6265Q59.6711 16.1208 58.4699 16.1208Q56.4448 16.1208 55.3425 14.7329Q54.2402 13.345 54.2402 10.8254Q54.2402 8.37915 55.2436 6.99121Q56.2507 5.60327 58.3198 5.15649L61.9489 4.34351L62.1613 5.66553L58.8141 6.3833Q57.2541 6.7312 56.4887 7.55518Q55.7233 8.37915 55.6208 9.92456Q56.1298 9.15918 56.9391 8.7417Q57.7485 8.32056 58.7556 8.32056ZM58.4992 14.9197Q59.2646 14.9197 59.8578 14.5754Q60.4511 14.2312 60.7807 13.6233Q61.1103 13.0154 61.1103 12.2354Q61.1103 11.0488 60.3889 10.3311Q59.6711 9.60962 58.4992 9.60962Q57.331 9.60962 56.6022 10.3311Q55.8735 11.0488 55.8735 12.2354Q55.8735 13.0154 56.2104 13.6233Q56.551 14.2312 57.1479 14.5754Q57.7485 14.9197 58.4992 14.9197ZM68.8503 7.97632Q70.0039 7.97632 70.9194 8.48535Q71.835 8.99438 72.3513 9.90991Q72.8677 10.8254 72.8677 12.0266Q72.8677 13.2241 72.3513 14.147Q71.835 15.0698 70.9194 15.5825Q70.0039 16.0916 68.8503 16.0916Q67.9934 16.0916 67.2793 15.762Q66.5689 15.4287 66.0745 14.7988L66.0745 18.9114L64.6353 18.9114L64.6353 8.04956L66.0159 8.04956L66.0159 9.30933Q66.4956 8.65015 67.228 8.31323Q67.9641 7.97632 68.8503 7.97632ZM68.7295 14.8318Q69.4949 14.8318 70.1028 14.4802Q70.7107 14.125 71.0623 13.4878Q71.4138 12.8506 71.4138 12.0266Q71.4138 11.199 71.0623 10.5618Q70.7107 9.92456 70.1028 9.58032Q69.4949 9.23608 68.7295 9.23608Q67.9788 9.23608 67.3709 9.58765Q66.7629 9.93921 66.4114 10.5691Q66.0598 11.199 66.0598 12.0266Q66.0598 12.8506 66.4041 13.4878Q66.7483 14.125 67.3635 14.4802Q67.9788 14.8318 68.7295 14.8318ZM77.7147 7.97632Q79.3663 7.97632 80.2416 8.78564Q81.1205 9.59497 81.1205 11.199L81.1205 16L79.7545 16L79.7545 14.949Q79.3956 15.5056 78.7255 15.7986Q78.059 16.0916 77.1471 16.0916Q75.8104 16.0916 75.0084 15.447Q74.2064 14.7988 74.2064 13.7515Q74.2064 12.7004 74.9718 12.0632Q75.7372 11.426 77.3998 11.426L79.6813 11.426L79.6813 11.1404Q79.6813 10.2102 79.1393 9.71582Q78.601 9.22144 77.5499 9.22144Q76.8468 9.22144 76.1693 9.45581Q75.4955 9.68652 75.0304 10.0747L74.4298 8.99438Q75.0451 8.5 75.8983 8.23999Q76.7553 7.97632 77.7147 7.97632ZM77.3851 14.9783Q78.2091 14.9783 78.8097 14.6121Q79.4103 14.2458 79.6813 13.5684L79.6813 12.4587L77.4621 12.4587Q75.631 12.4587 75.631 13.6892Q75.631 14.2898 76.0961 14.634Q76.5612 14.9783 77.3851 14.9783ZM89.6405 9.30933L86.7292 9.30933L86.7292 16L85.29 16L85.29 9.30933L82.3786 9.30933L82.3786 8.04956L89.6405 8.04956L89.6405 9.30933ZM94.7834 10.7485Q96.2995 10.7632 97.0941 11.4407Q97.8888 12.1145 97.8888 13.345Q97.8888 14.634 97.0246 15.3335Q96.164 16.0293 94.56 16.0146L91.1103 16L91.1103 8.04956L92.5495 8.04956L92.5495 10.7339L94.7834 10.7485ZM94.4391 14.9197Q95.4132 14.9343 95.9149 14.5315Q96.4203 14.125 96.4203 13.3303Q96.4203 12.5503 95.9333 12.1914Q95.4462 11.8289 94.4391 11.8142L92.5495 11.7849L92.5495 14.905L94.4391 14.9197ZM112.937 8.04956L112.937 16L111.629 16L111.629 10.1956L108.659 15.0991L108.029 15.0991L105.089 10.1809L105.089 16L103.77 16L103.77 8.04956L105.253 8.04956L108.374 13.4182L111.585 8.04956L112.937 8.04956ZM119.146 16.0916Q117.96 16.0916 117.015 15.5679Q116.07 15.0405 115.535 14.1177Q115.004 13.1948 115.004 12.0266Q115.004 10.8547 115.535 9.93188Q116.07 9.00903 117.015 8.49268Q117.96 7.97632 119.146 7.97632Q120.329 7.97632 121.266 8.49268Q122.204 9.00903 122.735 9.93188Q123.27 10.8547 123.27 12.0266Q123.27 13.1948 122.735 14.1177Q122.204 15.0405 121.266 15.5679Q120.329 16.0916 119.146 16.0916ZM119.146 14.8318Q119.908 14.8318 120.516 14.4802Q121.124 14.125 121.468 13.4878Q121.816 12.8506 121.816 12.0266Q121.816 11.199 121.468 10.5618Q121.124 9.92456 120.516 9.58032Q119.908 9.23608 119.146 9.23608Q118.381 9.23608 117.773 9.58032Q117.165 9.92456 116.81 10.5618Q116.458 11.199 116.458 12.0266Q116.458 12.8506 116.81 13.4878Q117.165 14.125 117.773 14.4802Q118.381 14.8318 119.146 14.8318ZM133.381 14.7402L133.381 17.8457L132.03 17.8457L132.03 16L125.387 16L125.387 17.8457L124.021 17.8457L124.021 14.7402L124.438 14.7402Q125.204 14.6963 125.489 13.6599Q125.775 12.6235 125.881 10.7339L125.998 8.04956L132.165 8.04956L132.165 14.7402L133.381 14.7402ZM127.2 10.8401Q127.141 12.3416 126.951 13.323Q126.764 14.3044 126.269 14.7402L130.726 14.7402L130.726 9.30933L127.276 9.30933L127.2 10.8401ZM142.44 12.0706Q142.44 12.2354 142.411 12.5063L135.958 12.5063Q136.094 13.5537 136.881 14.1946Q137.669 14.8318 138.84 14.8318Q140.265 14.8318 141.133 13.8687L141.928 14.7988Q141.389 15.4287 140.587 15.762Q139.785 16.0916 138.793 16.0916Q137.533 16.0916 136.559 15.5752Q135.585 15.0552 135.05 14.125Q134.519 13.1948 134.519 12.0266Q134.519 10.8694 135.036 9.93921Q135.556 9.00903 136.46 8.49268Q137.368 7.97632 138.511 7.97632Q139.65 7.97632 140.54 8.49268Q141.433 9.00903 141.935 9.93921Q142.44 10.8694 142.44 12.0706ZM138.511 9.18848Q137.475 9.18848 136.775 9.81836Q136.079 10.4482 135.958 11.47L141.06 11.47Q140.939 10.4666 140.239 9.82935Q139.544 9.18848 138.511 9.18848ZM151.366 8.04956L151.366 16L149.924 16L149.924 9.30933L146.507 9.30933L146.415 11.0818Q146.338 12.6858 146.13 13.7588Q145.921 14.8318 145.441 15.4763Q144.961 16.1208 144.104 16.1208Q143.716 16.1208 143.218 15.9854L143.31 14.7695Q143.504 14.8135 143.669 14.8135Q144.269 14.8135 144.57 14.2898Q144.87 13.7661 144.958 13.0447Q145.049 12.3232 145.126 10.9902L145.262 8.04956L151.366 8.04956ZM157.828 10.7485Q159.344 10.7632 160.139 11.4407Q160.934 12.1145 160.934 13.345Q160.934 14.634 160.07 15.3335Q159.209 16.0293 157.605 16.0146L154.155 16L154.155 8.04956L155.594 8.04956L155.594 10.7339L157.828 10.7485ZM157.484 14.9197Q158.458 14.9343 158.96 14.5315Q159.465 14.125 159.465 13.3303Q159.465 12.5503 158.978 12.1914Q158.491 11.8289 157.484 11.8142L155.594 11.7849L155.594 14.905L157.484 14.9197ZM172.741 9.30933L169.829 9.30933L169.829 16L168.39 16L168.39 9.30933L165.479 9.30933L165.479 8.04956L172.741 8.04956L172.741 9.30933ZM181.05 12.0706Q181.05 12.2354 181.021 12.5063L174.568 12.5063Q174.704 13.5537 175.491 14.1946Q176.279 14.8318 177.45 14.8318Q178.875 14.8318 179.743 13.8687L180.538 14.7988Q179.999 15.4287 179.197 15.762Q178.395 16.0916 177.403 16.0916Q176.143 16.0916 175.169 15.5752Q174.195 15.0552 173.66 14.125Q173.129 13.1948 173.129 12.0266Q173.129 10.8694 173.646 9.93921Q174.166 9.00903 175.07 8.49268Q175.978 7.97632 177.121 7.97632Q178.26 7.97632 179.15 8.49268Q180.043 9.00903 180.545 9.93921Q181.05 10.8694 181.05 12.0706ZM177.121 9.18848Q176.085 9.18848 175.385 9.81836Q174.689 10.4482 174.568 11.47L179.67 11.47Q179.549 10.4666 178.849 9.82935Q178.154 9.18848 177.121 9.18848ZM189.976 8.04956L189.976 16L188.534 16L188.534 9.30933L185.117 9.30933L185.025 11.0818Q184.948 12.6858 184.74 13.7588Q184.531 14.8318 184.051 15.4763Q183.571 16.1208 182.714 16.1208Q182.326 16.1208 181.828 15.9854L181.92 14.7695Q182.114 14.8135 182.279 14.8135Q182.879 14.8135 183.18 14.2898Q183.48 13.7661 183.568 13.0447Q183.659 12.3232 183.736 10.9902L183.872 8.04956L189.976 8.04956ZM199.95 12.0706Q199.95 12.2354 199.921 12.5063L193.468 12.5063Q193.604 13.5537 194.391 14.1946Q195.179 14.8318 196.35 14.8318Q197.775 14.8318 198.643 13.8687L199.438 14.7988Q198.899 15.4287 198.097 15.762Q197.295 16.0916 196.303 16.0916Q195.043 16.0916 194.069 15.5752Q193.095 15.0552 192.56 14.125Q192.029 13.1948 192.029 12.0266Q192.029 10.8694 192.546 9.93921Q193.066 9.00903 193.97 8.49268Q194.878 7.97632 196.021 7.97632Q197.16 7.97632 198.05 8.49268Q198.943 9.00903 199.445 9.93921Q199.95 10.8694 199.95 12.0706ZM196.021 9.18848Q194.985 9.18848 194.285 9.81836Q193.589 10.4482 193.468 11.47L198.57 11.47Q198.449 10.4666 197.749 9.82935Q197.054 9.18848 196.021 9.18848ZM212.219 12.0083Q212.219 13.854 210.989 14.9197Q209.759 15.9854 207.525 16.1062L207.525 18.9114L206.115 18.9114L206.115 16.1062Q203.881 15.9854 202.658 14.927Q201.435 13.8687 201.435 12.0083Q201.435 10.1663 202.65 9.12988Q203.866 8.09351 206.115 7.97632L206.115 4.87085L207.525 4.87085L207.525 7.97632Q209.759 8.09351 210.989 9.13721Q212.219 10.1809 212.219 12.0083ZM202.859 12.0083Q202.859 13.2864 203.676 14.0078Q204.496 14.7256 206.115 14.8318L206.115 9.25073Q204.481 9.35327 203.668 10.0601Q202.859 10.7632 202.859 12.0083ZM207.525 14.8464Q210.795 14.5901 210.795 12.0083Q210.795 10.7485 209.967 10.0527Q209.143 9.35327 207.525 9.25073L207.525 14.8464ZM217.666 16.0916Q216.48 16.0916 215.535 15.5679Q214.59 15.0405 214.055 14.1177Q213.524 13.1948 213.524 12.0266Q213.524 10.8547 214.055 9.93188Q214.59 9.00903 215.535 8.49268Q216.48 7.97632 217.666 7.97632Q218.849 7.97632 219.786 8.49268Q220.724 9.00903 221.255 9.93188Q221.79 10.8547 221.79 12.0266Q221.79 13.1948 221.255 14.1177Q220.724 15.0405 219.786 15.5679Q218.849 16.0916 217.666 16.0916ZM217.666 14.8318Q218.428 14.8318 219.036 14.4802Q219.644 14.125 219.988 13.4878Q220.336 12.8506 220.336 12.0266Q220.336 11.199 219.988 10.5618Q219.644 9.92456 219.036 9.58032Q218.428 9.23608 217.666 9.23608Q216.901 9.23608 216.293 9.58032Q215.685 9.92456 215.33 10.5618Q214.978 11.199 214.978 12.0266Q214.978 12.8506 215.33 13.4878Q215.685 14.125 216.293 14.4802Q216.901 14.8318 217.666 14.8318ZM223.875 8.04956L225.314 8.04956L225.314 11.426L229.845 11.426L229.845 8.04956L231.284 8.04956L231.284 16L229.845 16L229.845 12.6711L225.314 12.6711L225.314 16L223.875 16L223.875 8.04956ZM236.925 7.97632Q238.576 7.97632 239.452 8.78564Q240.331 9.59497 240.331 11.199L240.331 16L238.965 16L238.965 14.949Q238.606 15.5056 237.936 15.7986Q237.269 16.0916 236.357 16.0916Q235.02 16.0916 234.218 15.447Q233.416 14.7988 233.416 13.7515Q233.416 12.7004 234.182 12.0632Q234.947 11.426 236.61 11.426L238.891 11.426L238.891 11.1404Q238.891 10.2102 238.349 9.71582Q237.811 9.22144 236.76 9.22144Q236.057 9.22144 235.379 9.45581Q234.706 9.68652 234.24 10.0747L233.64 8.99438Q234.255 8.5 235.108 8.23999Q235.965 7.97632 236.925 7.97632ZM236.595 14.9783Q237.419 14.9783 238.02 14.6121Q238.62 14.2458 238.891 13.5684L238.891 12.4587L236.672 12.4587Q234.841 12.4587 234.841 13.6892Q234.841 14.2898 235.306 14.634Q235.771 14.9783 236.595 14.9783Z" fill="#101010" fill-opacity="1.000000" fill-rule="evenodd"/>
	<path id="Vector" d="M2.14307 2.09998L2.14307 18.9L12.8569 18.9L12.8569 2.09998L2.14307 2.09998ZM1.07129 0L13.9287 0C14.2129 0 14.4854 0.110596 14.686 0.307495C14.8872 0.504395 15 0.771484 15 1.05005L15 19.95C15 20.2285 14.8872 20.4956 14.686 20.6925C14.4854 20.8894 14.2129 21 13.9287 21L1.07129 21C0.787109 21 0.514648 20.8894 0.313965 20.6925C0.112793 20.4956 0 20.2285 0 19.95L0 1.05005C0 0.771484 0.112793 0.504395 0.313965 0.307495C0.514648 0.110596 0.787109 0 1.07129 0ZM7.5 15.75C7.78418 15.75 8.05664 15.8606 8.25781 16.0575C8.4585 16.2544 8.57129 16.5215 8.57129 16.8C8.57129 17.0785 8.4585 17.3456 8.25781 17.5425C8.05664 17.7394 7.78418 17.85 7.5 17.85C7.21582 17.85 6.94336 17.7394 6.74219 17.5425C6.5415 17.3456 6.42871 17.0785 6.42871 16.8C6.42871 16.5215 6.5415 16.2544 6.74219 16.0575C6.94336 15.8606 7.21582 15.75 7.5 15.75Z" fill="#838383" fill-opacity="1.000000" fill-rule="nonzero"/>
</svg>
