<svg width="30.100098" height="30.099976" viewBox="0 0 30.1001 30.1" fill="none" xmlns="http://www.w3.org/2000/svg" xmlns:xlink="http://www.w3.org/1999/xlink">
	<desc>
			Created with Pixso.
	</desc>
	<defs/>
	<path id="Instagram" d="M15.0498 10.535C13.8525 10.535 12.7041 11.0107 11.8574 11.8574C11.0107 12.7041 10.5352 13.8525 10.5352 15.05C10.5352 16.2474 11.0107 17.3959 11.8574 18.2426C12.7041 19.0894 13.8525 19.5649 15.0498 19.5649C16.2476 19.5649 17.396 19.0894 18.2427 18.2426C19.0894 17.3959 19.5649 16.2474 19.5649 15.05C19.5649 13.8525 19.0894 12.7041 18.2427 11.8574C17.396 11.0107 16.2476 10.535 15.0498 10.535ZM15.0498 7.52502C17.0459 7.52502 18.96 8.31787 20.3711 9.729C21.7822 11.1403 22.5752 13.0542 22.5752 15.05C22.5752 17.0458 21.7822 18.9597 20.3711 20.371C18.96 21.7822 17.0459 22.575 15.0498 22.575C13.0542 22.575 11.1401 21.7822 9.729 20.371C8.31787 18.9597 7.5249 17.0458 7.5249 15.05C7.5249 13.0542 8.31787 11.1403 9.729 9.729C11.1401 8.31787 13.0542 7.52502 15.0498 7.52502ZM24.8325 7.1488C24.8325 7.64771 24.6343 8.12622 24.2817 8.479C23.9287 8.83179 23.4502 9.03003 22.9512 9.03003C22.4521 9.03003 21.9736 8.83179 21.6211 8.479C21.2681 8.12622 21.0698 7.64771 21.0698 7.1488C21.0698 6.64978 21.2681 6.17126 21.6211 5.81848C21.9736 5.4657 22.4521 5.26746 22.9512 5.26746C23.4502 5.26746 23.9287 5.4657 24.2817 5.81848C24.6343 6.17126 24.8325 6.64978 24.8325 7.1488ZM15.0498 3.01001C11.3267 3.01001 10.7188 3.02051 8.98633 3.09729C7.80664 3.15295 7.01465 3.31104 6.28027 3.59692C5.62695 3.84973 5.15625 4.15234 4.65479 4.65491C4.18408 5.11011 3.82178 5.66565 3.59521 6.2804C3.30957 7.01782 3.15137 7.80798 3.09717 8.98633C3.01904 10.6478 3.00977 11.2288 3.00977 15.05C3.00977 18.7733 3.02051 19.3813 3.09717 21.1136C3.15283 22.2921 3.31104 23.0852 3.59521 23.8181C3.85107 24.4728 4.15234 24.9438 4.65186 25.4435C5.15918 25.9492 5.63037 26.2517 6.27734 26.5016C7.021 26.7889 7.8125 26.9485 8.98633 27.0027C10.6479 27.0809 11.229 27.09 15.0498 27.09C18.7734 27.09 19.3813 27.0795 21.1138 27.0027C22.2905 26.947 23.0835 26.7889 23.8184 26.5045C24.4697 26.2502 24.9438 25.9478 25.4434 25.448C25.9507 24.9409 26.2534 24.4698 26.5029 23.8226C26.7891 23.0807 26.9487 22.2876 27.0029 21.1136C27.0811 19.4521 27.0898 18.8712 27.0898 15.05C27.0898 11.3267 27.0796 10.7186 27.0029 8.98633C26.9473 7.80945 26.7891 7.01477 26.5029 6.2804C26.2764 5.66638 25.9146 5.11096 25.4448 4.65491C24.9902 4.18372 24.4346 3.82141 23.8198 3.59546C23.082 3.30945 22.2905 3.15149 21.1138 3.09729C19.4521 3.01904 18.8711 3.01001 15.0498 3.01001ZM15.0498 0C19.1392 0 19.6494 0.0150146 21.2534 0.090332C22.8564 0.165527 23.9478 0.41687 24.9077 0.790161C25.9009 1.17236 26.7378 1.69006 27.5747 2.52539C28.3398 3.27771 28.9321 4.18774 29.3101 5.19226C29.6816 6.15088 29.9346 7.24353 30.0098 8.84644C30.0806 10.4507 30.1001 10.9609 30.1001 15.05C30.1001 19.139 30.085 19.6493 30.0098 21.2537C29.9346 22.8564 29.6816 23.9475 29.3101 24.9077C28.9331 25.9127 28.3408 26.823 27.5747 27.5746C26.8223 28.3396 25.9121 28.9318 24.9077 29.3098C23.9492 29.6816 22.8564 29.9344 21.2534 30.0096C19.6494 30.0804 19.1392 30.1 15.0498 30.1C10.9609 30.1 10.4507 30.085 8.84619 30.0096C7.24365 29.9344 6.15234 29.6816 5.19238 29.3098C4.1875 28.9329 3.27734 28.3406 2.52539 27.5746C1.75977 26.8224 1.16797 25.9122 0.790039 24.9077C0.416992 23.9491 0.165527 22.8564 0.090332 21.2537C0.0195312 19.6493 0 19.139 0 15.05C0 10.9609 0.0151367 10.4507 0.090332 8.84644C0.165527 7.24207 0.416992 6.15247 0.790039 5.19226C1.1665 4.18713 1.75928 3.27686 2.52539 2.52539C3.27734 1.75964 4.1875 1.16748 5.19238 0.790161C6.15234 0.41687 7.24219 0.165527 8.84619 0.090332C10.4507 0.0195312 10.9609 0 15.0498 0Z" fill="#101010" fill-opacity="1.000000" fill-rule="nonzero"/>
</svg>
