<svg width="23.200195" height="23.199951" viewBox="0 0 23.2002 23.2" fill="none" xmlns="http://www.w3.org/2000/svg" xmlns:xlink="http://www.w3.org/1999/xlink">
	<desc>
			Created with Pixso.
	</desc>
	<defs/>
	<path id="Vector" d="M3.6001 5.08594L0 1.54541L1.5708 0L5.16992 3.54175L22.0898 3.54175C22.2627 3.54175 22.4336 3.58154 22.5879 3.65796C22.7427 3.73438 22.877 3.84521 22.9805 3.98169C23.0835 4.11841 23.1533 4.27686 23.1831 4.44434C23.2134 4.61206 23.2031 4.78418 23.1533 4.94727L20.4893 13.6843C20.4204 13.9094 20.2803 14.1067 20.0884 14.2471C19.897 14.3872 19.6646 14.4631 19.4258 14.4629L5.82031 14.4629L5.82031 16.6472L18.0312 16.6472L18.0312 18.8315L4.70996 18.8315C4.41553 18.8315 4.1333 18.7166 3.92529 18.5117C3.7168 18.3069 3.6001 18.0291 3.6001 17.7393L3.6001 5.08594ZM5.82031 5.72607L5.82031 12.2788L18.5996 12.2788L20.5977 5.72607L5.82031 5.72607ZM5.26514 23.2C4.82373 23.2 4.3999 23.0273 4.08789 22.7202C3.77539 22.4131 3.6001 21.9963 3.6001 21.5618C3.6001 21.1274 3.77539 20.7107 4.08789 20.4033C4.3999 20.0962 4.82373 19.9236 5.26514 19.9236C5.70703 19.9236 6.13037 20.0962 6.44287 20.4033C6.75488 20.7107 6.93018 21.1274 6.93018 21.5618C6.93018 21.9963 6.75488 22.4131 6.44287 22.7202C6.13037 23.0273 5.70703 23.2 5.26514 23.2ZM18.5864 23.2C18.1445 23.2 17.7212 23.0273 17.4087 22.7202C17.0967 22.4131 16.9214 21.9963 16.9214 21.5618C16.9214 21.1274 17.0967 20.7107 17.4087 20.4033C17.7212 20.0962 18.1445 19.9236 18.5864 19.9236C19.0278 19.9236 19.4517 20.0962 19.7637 20.4033C20.0762 20.7107 20.2515 21.1274 20.2515 21.5618C20.2515 21.9963 20.0762 22.4131 19.7637 22.7202C19.4517 23.0273 19.0278 23.2 18.5864 23.2Z" fill="#838383" fill-opacity="1.000000" fill-rule="nonzero"/>
</svg>
