<svg width="62.000000" height="60.000000" viewBox="0 0 62 60" fill="none" xmlns="http://www.w3.org/2000/svg" xmlns:xlink="http://www.w3.org/1999/xlink">
	<desc>
			Created with Pixso.
	</desc>
	<defs/>
	<path id="Vector" d="M31.001 21.6543C33.585 19.3726 37.5776 19.4482 40.0669 21.9009C42.5552 24.355 42.6411 28.2629 40.3267 30.812L30.9985 40L21.6729 30.812C19.3589 28.2629 19.4458 24.3484 21.9326 21.9009C24.4243 19.4514 28.4092 19.3691 31.001 21.6543ZM38.5093 23.4297C36.8594 21.8047 34.1973 21.7388 32.4707 23.2642L31.002 24.5605L29.5322 23.2654C27.7998 21.7375 25.1436 21.8047 23.4893 23.4319C21.8501 25.0442 21.7676 27.6245 23.2778 29.3298L31 36.937L38.7217 29.3308C40.2329 27.6245 40.1504 25.0474 38.5093 23.4297Z" fill="#838383" fill-opacity="1.000000" fill-rule="nonzero"/>
</svg>
