<svg width="83.472656" height="21.820068" viewBox="0 0 83.4727 21.8201" fill="none" xmlns="http://www.w3.org/2000/svg" xmlns:xlink="http://www.w3.org/1999/xlink">
	<desc>
			Created with Pixso.
	</desc>
	<defs/>
	<path id="QPICK" d="M20.0256 19.6716Q19.1711 20.7214 17.9565 21.2708Q16.748 21.8201 15.2954 21.8201Q13.3484 21.8201 11.7737 20.9839Q10.199 20.1477 8.17261 18.0237Q5.79834 17.7246 3.93677 16.4978Q2.0752 15.271 1.0376 13.3362Q0 11.3953 0 9.04541Q0 6.47583 1.23291 4.41284Q2.47192 2.34985 4.65698 1.17798Q6.84814 0 9.57642 0Q12.2986 0 14.4714 1.17798Q16.6504 2.34985 17.8955 4.41284Q19.1467 6.47583 19.1467 9.04541Q19.1467 12.0972 17.4316 14.3982Q15.7227 16.6992 12.8967 17.5964Q13.5254 18.2495 14.1113 18.5364Q14.6973 18.8232 15.3748 18.8232Q16.9983 18.8232 18.2251 17.5232L20.0256 19.6716ZM4.09546 9.04541Q4.09546 10.675 4.80957 11.9507Q5.52368 13.2202 6.7749 13.9343Q8.02612 14.6484 9.57642 14.6484Q11.1206 14.6484 12.3718 13.9343Q13.623 13.2202 14.3372 11.9507Q15.0513 10.675 15.0513 9.04541Q15.0513 7.42188 14.3372 6.14624Q13.623 4.87061 12.3718 4.1626Q11.1206 3.44849 9.57642 3.44849Q8.02612 3.44849 6.7749 4.1626Q5.52368 4.87061 4.80957 6.14624Q4.09546 7.42188 4.09546 9.04541ZM29.7731 0.299072Q32.0985 0.299072 33.8075 1.07422Q35.5226 1.84937 36.4442 3.27759Q37.372 4.69971 37.372 6.64673Q37.372 8.57544 36.4442 10.0159Q35.5226 11.4502 33.8075 12.2131Q32.0985 12.97 29.7731 12.97L26.2514 12.97L26.2514 17.7979L22.1986 17.7979L22.1986 0.299072L29.7731 0.299072ZM29.5473 9.67407Q31.3722 9.67407 32.3183 8.88672Q33.2704 8.09937 33.2704 6.64673Q33.2704 5.17578 32.3183 4.38843Q31.3722 3.59497 29.5473 3.59497L26.2514 3.59497L26.2514 9.67407L29.5473 9.67407ZM40.2486 0.299072L44.3014 0.299072L44.3014 17.7979L40.2486 17.7979L40.2486 0.299072ZM56.8227 18.0969Q54.1493 18.0969 51.9826 16.9373Q49.8219 15.7715 48.5829 13.7085Q47.35 11.6455 47.35 9.04541Q47.35 6.44531 48.5829 4.38843Q49.8219 2.32544 51.9826 1.16577Q54.1493 0 56.8471 0Q59.1237 0 60.9608 0.799561Q62.798 1.59912 64.0492 3.10059L61.4491 5.49927Q59.673 3.44849 57.0485 3.44849Q55.425 3.44849 54.1493 4.1626Q52.8737 4.87061 52.1596 6.14624Q51.4455 7.42188 51.4455 9.04541Q51.4455 10.675 52.1596 11.9507Q52.8737 13.2202 54.1493 13.9343Q55.425 14.6484 57.0485 14.6484Q59.673 14.6484 61.4491 12.5732L64.0492 14.9719Q62.798 16.4978 60.9486 17.2974Q59.0993 18.0969 56.8227 18.0969ZM73.1457 10.9253L70.7959 13.3728L70.7959 17.7979L66.7736 17.7979L66.7736 0.299072L70.7959 0.299072L70.7959 8.47168L78.5473 0.299072L83.0456 0.299072L75.8007 8.09937L83.4729 17.7979L78.7487 17.7979L73.1457 10.9253Z" fill="#101010" fill-opacity="1.000000" fill-rule="evenodd"/>
</svg>
