<svg width="17.611328" height="17.970795" viewBox="0 0 17.6113 17.9708" fill="none" xmlns="http://www.w3.org/2000/svg" xmlns:xlink="http://www.w3.org/1999/xlink">
	<desc>
			Created with Pixso.
	</desc>
	<defs/>
	<path id="Vector" d="M12.4736 6.6568L11.0879 5.2428L1.95996 14.5568L1.95996 15.9708L3.3457 15.9708L12.4736 6.6568ZM13.8594 5.2428L15.2451 3.8288L13.8594 2.41479L12.4736 3.8288L13.8594 5.2428ZM4.15723 17.9708L0 17.9708L0 13.7278L13.166 0.292786C13.3496 0.105316 13.5996 0 13.8594 0C14.1191 0 14.3682 0.105316 14.5518 0.292786L17.3242 3.1218C17.5078 3.30933 17.6113 3.56363 17.6113 3.8288C17.6113 4.09396 17.5078 4.34827 17.3242 4.5358L4.1582 17.9708L4.15723 17.9708Z" fill="#8E8E8E" fill-opacity="1.000000" fill-rule="nonzero"/>
</svg>
