<svg width="30.000000" height="30.000000" viewBox="0 0 30 30" fill="none" xmlns="http://www.w3.org/2000/svg" xmlns:xlink="http://www.w3.org/1999/xlink">
	<desc>
			Created with Pixso.
	</desc>
	<defs/>
	<path id="Vector" d="M29.8652 23.9131L29.7158 23.4631C29.3623 22.4116 28.2031 21.3152 27.1377 21.0264L23.1963 19.9495C22.1279 19.6587 20.6035 20.0496 19.8213 20.8318L18.3945 22.2585C13.2109 20.8574 9.14551 16.7915 7.74707 11.6074L9.17285 10.1807C9.95508 9.39868 10.3457 7.87573 10.0557 6.80664L8.98047 2.86255C8.68945 1.79565 7.5918 0.63623 6.54199 0.286377L6.09277 0.13501C5.04102 -0.214844 3.54199 0.138916 2.75977 0.921143L0.625977 3.05713C0.245117 3.43652 0.00195312 4.52124 0.00195312 4.52515C-0.0732422 11.3008 2.58301 17.8291 7.375 22.6221C12.1553 27.4031 18.6582 30.0562 25.4131 29.999C25.4482 29.999 26.5645 29.7593 26.9453 29.3801L29.0791 27.2458C29.8613 26.4639 30.2148 24.9644 29.8652 23.9131Z" fill="#000000" fill-opacity="1.000000" fill-rule="nonzero"/>
</svg>
