<svg width="30.100098" height="30.099976" viewBox="0 0 30.1001 30.1" fill="none" xmlns="http://www.w3.org/2000/svg" xmlns:xlink="http://www.w3.org/1999/xlink">
	<desc>
			Created with Pixso.
	</desc>
	<defs/>
	<path id="Telegram" d="M15.0498 27.09C18.2432 27.09 21.3057 25.8215 23.5635 23.5636C25.8213 21.3057 27.0898 18.2432 27.0898 15.05C27.0898 11.8568 25.8213 8.79443 23.5635 6.53638C21.3057 4.27844 18.2432 3.01001 15.0498 3.01001C11.8569 3.01001 8.79443 4.27844 6.53662 6.53638C4.27832 8.79443 3.00977 11.8568 3.00977 15.05C3.00977 18.2432 4.27832 21.3057 6.53662 23.5636C8.79443 25.8215 11.8569 27.09 15.0498 27.09ZM15.0498 30.1C6.73779 30.1 0 23.3621 0 15.05C0 6.73792 6.73779 0 15.0498 0C23.3623 0 30.1001 6.73792 30.1001 15.05C30.1001 23.3621 23.3623 30.1 15.0498 30.1ZM10.3696 16.8108L6.60986 15.6384C5.79736 15.3901 5.79297 14.8303 6.79199 14.4285L21.4404 8.76965C22.2905 8.42346 22.772 8.86145 22.4966 9.95862L20.0029 21.7277C19.8286 22.5659 19.3242 22.7661 18.6245 22.3794L14.7852 19.538L12.9956 21.2656C12.812 21.4432 12.6631 21.5952 12.3804 21.6328C12.0986 21.672 11.8667 21.5878 11.6968 21.1212L10.3877 16.8003L10.3696 16.8124L10.3696 16.8108Z" fill="#101010" fill-opacity="1.000000" fill-rule="nonzero"/>
</svg>
