<svg width="409.879883" height="315.000000" viewBox="0 0 409.88 315" fill="none" xmlns="http://www.w3.org/2000/svg" xmlns:xlink="http://www.w3.org/1999/xlink">
	<desc>
			Created with Pixso.
	</desc>
	<defs>
		<clipPath id="clip227_269">
			<rect id="Illustration" width="409.879486" height="315.000000" fill="white" fill-opacity="0"/>
		</clipPath>
	</defs>
	<rect id="Illustration" width="409.879486" height="315.000000" fill="#FFFFFF" fill-opacity="0"/>
	<g clip-path="url(#clip227_269)">
		<path id="Vector" d="M29.2109 290.191C37.9307 306.42 56.4385 313.387 56.4385 313.387C56.4385 313.387 60.8076 294.041 52.0869 277.811C43.3672 261.581 24.8604 254.614 24.8604 254.614C24.8604 254.614 20.4912 273.961 29.2109 290.191Z" fill="#FFA542" fill-opacity="1.000000" fill-rule="nonzero"/>
		<path id="Vector" d="M35.2051 284.851C50.9482 294.357 57.0107 313.238 57.0107 313.238C57.0107 313.238 37.5498 316.707 21.8066 307.201C6.06348 297.695 0 278.814 0 278.814C0 278.814 19.4619 275.345 35.2051 284.851Z" fill="#FFCE7F" fill-opacity="1.000000" fill-rule="nonzero"/>
		<path id="Vector" d="M289.942 -186.396L388.169 -186.396L388.169 -184.988L289.942 -184.988L289.942 -186.396Z" fill="#F2F2F2" fill-opacity="1.000000" fill-rule="evenodd"/>
		<path id="Vector" d="M360.104 -185.339L361.508 -185.339L361.508 -172.313L360.104 -172.313L360.104 -185.339Z" fill="#F2F2F2" fill-opacity="1.000000" fill-rule="evenodd"/>
		<path id="Vector" d="M317.306 -185.339L318.709 -185.339L318.709 -172.313L317.306 -172.313L317.306 -185.339Z" fill="#F2F2F2" fill-opacity="1.000000" fill-rule="evenodd"/>
		<path id="Vector" d="M339.758 -118.798L437.984 -118.798L437.984 -117.39L339.758 -117.39L339.758 -118.798Z" fill="#F2F2F2" fill-opacity="1.000000" fill-rule="evenodd"/>
		<path id="Vector" d="M366.419 -131.472L367.822 -131.472L367.822 -118.446L366.419 -118.446L366.419 -131.472Z" fill="#F2F2F2" fill-opacity="1.000000" fill-rule="evenodd"/>
		<path id="Vector" d="M409.218 -131.472L410.621 -131.472L410.621 -118.446L409.218 -118.446L409.218 -131.472Z" fill="#F2F2F2" fill-opacity="1.000000" fill-rule="evenodd"/>
		<path id="Vector" d="M470.258 -87.1113L568.484 -87.1113L568.484 -85.7031L470.258 -85.7031L470.258 -87.1113Z" fill="#F2F2F2" fill-opacity="1.000000" fill-rule="evenodd"/>
		<path id="Vector" d="M496.92 -99.7861L498.323 -99.7861L498.323 -86.7595L496.92 -86.7595L496.92 -99.7861Z" fill="#F2F2F2" fill-opacity="1.000000" fill-rule="evenodd"/>
		<path id="Vector" d="M539.719 -99.7861L541.122 -99.7861L541.122 -86.7595L539.719 -86.7595L539.719 -99.7861Z" fill="#F2F2F2" fill-opacity="1.000000" fill-rule="evenodd"/>
		<path id="Vector" d="M460.436 239.612L558.662 239.612L558.662 241.02L460.436 241.02L460.436 239.612Z" fill="#F2F2F2" fill-opacity="1.000000" fill-rule="evenodd"/>
		<path id="Vector" d="M487.098 226.937L488.501 226.937L488.501 239.964L487.098 239.964L487.098 226.937Z" fill="#F2F2F2" fill-opacity="1.000000" fill-rule="evenodd"/>
		<path id="Vector" d="M529.896 226.937L531.299 226.937L531.299 239.964L529.896 239.964L529.896 226.937Z" fill="#F2F2F2" fill-opacity="1.000000" fill-rule="evenodd"/>
		<path id="Vector" d="M292.749 13.5813L390.976 13.5813L390.976 14.9895L292.749 14.9895L292.749 13.5813Z" fill="#F2F2F2" fill-opacity="1.000000" fill-rule="evenodd"/>
		<path id="Vector" d="M319.41 0.906738L320.813 0.906738L320.813 13.9333L319.41 13.9333L319.41 0.906738Z" fill="#F2F2F2" fill-opacity="1.000000" fill-rule="evenodd"/>
		<path id="Vector" d="M362.209 0.906738L363.612 0.906738L363.612 13.9333L362.209 13.9333L362.209 0.906738Z" fill="#F2F2F2" fill-opacity="1.000000" fill-rule="evenodd"/>
		<path id="Vector" d="M323.62 183.28L421.847 183.28L421.847 184.688L323.62 184.688L323.62 183.28Z" fill="#F2F2F2" fill-opacity="1.000000" fill-rule="evenodd"/>
		<path id="Vector" d="M350.281 170.606L351.685 170.606L351.685 183.632L350.281 183.632L350.281 170.606Z" fill="#F2F2F2" fill-opacity="1.000000" fill-rule="evenodd"/>
		<path id="Vector" d="M393.08 170.606L394.483 170.606L394.483 183.632L393.08 183.632L393.08 170.606Z" fill="#F2F2F2" fill-opacity="1.000000" fill-rule="evenodd"/>
		<path id="Vector" d="M480.782 131.878L579.009 131.878L579.009 133.286L480.782 133.286L480.782 131.878Z" fill="#F2F2F2" fill-opacity="1.000000" fill-rule="evenodd"/>
		<path id="Vector" d="M507.443 119.203L508.847 119.203L508.847 132.23L507.443 132.23L507.443 119.203Z" fill="#F2F2F2" fill-opacity="1.000000" fill-rule="evenodd"/>
		<path id="Vector" d="M550.242 119.203L551.646 119.203L551.646 132.23L550.242 132.23L550.242 119.203Z" fill="#F2F2F2" fill-opacity="1.000000" fill-rule="evenodd"/>
		<path id="Vector" d="M254.027 282.759L87.8945 282.759L87.8945 281.56L252.832 281.56L252.832 223.383L101.861 223.383L94.5273 208.049L95.6045 207.53L102.613 222.184L254.027 222.184L254.027 282.759Z" fill="#2F2E41" fill-opacity="1.000000" fill-rule="nonzero"/>
		<path id="Vector" d="M122.556 299.552C122.556 306.508 116.937 312.147 110.006 312.147C103.075 312.147 97.4561 306.508 97.4561 299.552C97.4561 292.596 103.075 286.957 110.006 286.957C116.937 286.957 122.556 292.596 122.556 299.552Z" fill="#101010" fill-opacity="1.000000" fill-rule="evenodd"/>
		<path id="Vector" d="M246.26 299.552C246.26 306.508 240.641 312.147 233.71 312.147C226.779 312.147 221.16 306.508 221.16 299.552C221.16 292.596 226.779 286.957 233.71 286.957C240.641 286.957 246.26 292.596 246.26 299.552Z" fill="#101010" fill-opacity="1.000000" fill-rule="evenodd"/>
		<path id="Vector" d="M387.293 32.0618C387.293 36.3677 383.814 39.8584 379.523 39.8584C375.233 39.8584 371.755 36.3677 371.755 32.0618C371.755 27.7556 375.233 24.2649 379.523 24.2649C383.814 24.2649 387.293 27.7556 387.293 32.0618Z" fill="#FFA542" fill-opacity="1.000000" fill-rule="evenodd"/>
		<path id="Vector" d="M271.797 203.591L85.0625 203.591L44.6572 71.0457L313.408 71.0457L313.163 71.8254L271.797 203.591ZM85.9463 202.392L270.92 202.392L311.778 72.2451L46.2725 72.2451L85.9463 202.392Z" fill="#2F2E41" fill-opacity="1.000000" fill-rule="nonzero"/>
		<path id="Vector" d="M257.22 196.694L93.2041 196.694L57.7148 79.1421L293.768 79.1421L293.553 79.8342L257.22 196.694Z" fill="#F2F2F2" fill-opacity="1.000000" fill-rule="nonzero"/>
		<path id="Vector" d="M316.756 59.2043L315.601 58.8967L323.487 29.0627L369.365 29.0627L369.365 30.2627L324.407 30.2627L316.756 59.2043Z" fill="#2F2E41" fill-opacity="1.000000" fill-rule="nonzero"/>
		<path id="Vector" d="M57.7139 111.229L299.978 111.229L299.978 112.429L57.7139 112.429L57.7139 111.229Z" fill="#2F2E41" fill-opacity="1.000000" fill-rule="evenodd"/>
		<path id="Vector" d="M71.1855 155.421L286.104 155.421L286.104 156.621L71.1855 156.621L71.1855 155.421Z" fill="#2F2E41" fill-opacity="1.000000" fill-rule="evenodd"/>
		<path id="Vector" d="M178.431 71.6455L179.626 71.6455L179.626 202.992L178.431 202.992L178.431 71.6455Z" fill="#2F2E41" fill-opacity="1.000000" fill-rule="evenodd"/>
		<path id="Vector" d="M224.558 202.951L233.137 71.6079L234.33 71.6863L225.75 203.029L224.558 202.951Z" fill="#2F2E41" fill-opacity="1.000000" fill-rule="evenodd"/>
		<path id="Vector" d="M123.752 71.6843L124.945 71.6062L133.475 202.953L132.282 203.031L123.752 71.6843Z" fill="#2F2E41" fill-opacity="1.000000" fill-rule="evenodd"/>
		<path id="Vector" d="M0 312.48L389.763 312.48L389.763 315L0 315L0 312.48Z" fill="#090909" fill-opacity="1.000000" fill-rule="evenodd"/>
		<path id="Vector" d="M42.2715 36.8181L140.498 36.8181L140.498 38.2263L42.2715 38.2263L42.2715 36.8181Z" fill="#F2F2F2" fill-opacity="1.000000" fill-rule="evenodd"/>
		<path id="Vector" d="M68.9326 24.1436L70.3359 24.1436L70.3359 37.1702L68.9326 37.1702L68.9326 24.1436Z" fill="#F2F2F2" fill-opacity="1.000000" fill-rule="evenodd"/>
		<path id="Vector" d="M111.731 24.1436L113.135 24.1436L113.135 37.1702L111.731 37.1702L111.731 24.1436Z" fill="#F2F2F2" fill-opacity="1.000000" fill-rule="evenodd"/>
		<path id="Vector" d="M76.6504 -171.609L174.877 -171.609L174.877 -170.2L76.6504 -170.2L76.6504 -171.609Z" fill="#F2F2F2" fill-opacity="1.000000" fill-rule="evenodd"/>
		<path id="Vector" d="M146.812 -170.552L148.216 -170.552L148.216 -157.526L146.812 -157.526L146.812 -170.552Z" fill="#F2F2F2" fill-opacity="1.000000" fill-rule="evenodd"/>
		<path id="Vector" d="M104.014 -170.552L105.417 -170.552L105.417 -157.526L104.014 -157.526L104.014 -170.552Z" fill="#F2F2F2" fill-opacity="1.000000" fill-rule="evenodd"/>
		<path id="Vector" d="M175.579 -32.8923L273.806 -32.8923L273.806 -31.4839L175.579 -31.4839L175.579 -32.8923Z" fill="#F2F2F2" fill-opacity="1.000000" fill-rule="evenodd"/>
		<path id="Vector" d="M245.74 -31.8359L247.144 -31.8359L247.144 -18.8093L245.74 -18.8093L245.74 -31.8359Z" fill="#F2F2F2" fill-opacity="1.000000" fill-rule="evenodd"/>
		<path id="Vector" d="M202.941 -31.8359L204.345 -31.8359L204.345 -18.8093L202.941 -18.8093L202.941 -31.8359Z" fill="#F2F2F2" fill-opacity="1.000000" fill-rule="evenodd"/>
		<path id="Vector" d="M8.59375 -33.5964L106.82 -33.5964L106.82 -32.1882L8.59375 -32.1882L8.59375 -33.5964Z" fill="#F2F2F2" fill-opacity="1.000000" fill-rule="evenodd"/>
		<path id="Vector" d="M78.7559 -32.54L80.1592 -32.54L80.1592 -19.5134L78.7559 -19.5134L78.7559 -32.54Z" fill="#F2F2F2" fill-opacity="1.000000" fill-rule="evenodd"/>
		<path id="Vector" d="M35.957 -32.54L37.3604 -32.54L37.3604 -19.5134L35.957 -19.5134L35.957 -32.54Z" fill="#F2F2F2" fill-opacity="1.000000" fill-rule="evenodd"/>
		<path id="Vector" d="M126.466 -104.011L224.692 -104.011L224.692 -102.603L126.466 -102.603L126.466 -104.011Z" fill="#F2F2F2" fill-opacity="1.000000" fill-rule="evenodd"/>
		<path id="Vector" d="M153.127 -116.685L154.53 -116.685L154.53 -103.659L153.127 -103.659L153.127 -116.685Z" fill="#F2F2F2" fill-opacity="1.000000" fill-rule="evenodd"/>
		<path id="Vector" d="M195.926 -116.685L197.329 -116.685L197.329 -103.659L195.926 -103.659L195.926 -116.685Z" fill="#F2F2F2" fill-opacity="1.000000" fill-rule="evenodd"/>
	</g>
</svg>
