<svg width="17.712891" height="16.000000" viewBox="0 0 17.7129 16" fill="none" xmlns="http://www.w3.org/2000/svg" xmlns:xlink="http://www.w3.org/1999/xlink">
	<desc>
			Created with Pixso.
	</desc>
	<defs/>
	<path id="Vector" d="M0 0L17.7129 0L17.7129 2L0 2L0 0ZM0 14L17.7129 14L17.7129 16L0 16L0 14ZM14.9932 10.914L14.8525 10.044L13.2832 10.044L13.0342 10.907L11.7764 10.91C12.5859 8.50403 13.1855 6.71997 13.5762 5.56201C13.6787 5.25897 13.8613 5.10498 14.1279 5.10699C14.333 5.10901 14.667 5.10901 15.1309 5.10699L16.1025 10.912L14.9932 10.915L14.9932 10.914ZM13.6367 8.85199L14.6484 8.85199L14.2695 6.672L13.6367 8.85199ZM5.5332 5.10602L6.79688 5.10797L4.84277 10.914L3.5625 10.913C3.12988 8.84302 2.8125 7.30701 2.60938 6.30798C2.54785 6.00098 2.42383 5.78699 2.18555 5.68597C1.97461 5.59601 1.62109 5.45599 1.12695 5.26703L1.12695 5.10699L3.14746 5.10699C3.49707 5.10699 3.7002 5.31702 3.7666 5.74701L4.26562 9.03601L5.5332 5.10602ZM8.5332 5.10797L7.53516 10.913L6.33105 10.911L7.33008 5.10602L8.5332 5.10797ZM10.9746 5C11.334 5 11.7881 5.138 12.0488 5.26703L11.8379 6.47101C11.6016 6.35303 11.2139 6.19397 10.8877 6.20099C10.4121 6.21002 10.1191 6.45697 10.1191 6.69397C10.1191 7.078 10.6279 7.27197 11.1533 7.69299C11.751 8.17297 11.8291 8.60303 11.8223 9.07098C11.8145 10.042 11.1533 11 9.75781 11C9.12109 10.988 8.8916 10.922 8.37305 10.694L8.5918 9.43799C9.12012 9.71198 9.34473 9.79901 9.7959 9.79901C10.2109 9.79901 10.5654 9.59198 10.5684 9.23102C10.5703 8.974 10.4443 8.84698 9.97949 8.52899C9.51465 8.21198 8.86426 7.77301 8.87207 6.88898C8.88281 5.75897 9.74707 5 10.9736 5L10.9746 5Z" fill="#101010" fill-opacity="1.000000" fill-rule="nonzero"/>
</svg>
