<svg width="30.100098" height="20.640015" viewBox="0 0 30.1001 20.64" fill="none" xmlns="http://www.w3.org/2000/svg" xmlns:xlink="http://www.w3.org/1999/xlink">
	<desc>
			Created with Pixso.
	</desc>
	<defs/>
	<path id="VK" d="M0 2.83948C0 1.80139 0.575195 1.2417 1.7251 1.16028L6.15674 1.1908C6.4541 1.1908 6.65234 1.34338 6.75146 1.6488C7.20752 3.17542 7.71826 4.49341 8.28369 5.60278C8.84863 6.71204 9.5874 7.98938 10.4995 9.43457C10.5786 9.6178 10.7075 9.70935 10.8857 9.70935C11.0249 9.70935 11.1338 9.63806 11.2134 9.49561L11.3022 9.15979L11.332 3.87769C11.332 3.51123 11.248 3.26697 11.0791 3.1449C10.9106 3.02271 10.5986 2.93115 10.1426 2.87012C9.78564 2.80896 9.60693 2.58508 9.60693 2.19836C9.60693 2.11694 9.6167 2.05591 9.63672 2.01514C10.0532 0.692017 11.2427 0.0305176 13.2061 0.0305176L14.8716 0C15.625 0 16.2495 0.193359 16.7451 0.580078C17.2412 0.966919 17.4888 1.57751 17.4888 2.41211L17.4888 9.34302C17.6279 9.4447 17.7568 9.49561 17.8755 9.49561C18.1729 9.49561 18.4307 9.31238 18.6489 8.94604C20.8301 5.8114 22.0098 3.71484 22.1885 2.65637C22.1885 2.63599 22.208 2.58508 22.248 2.50366C22.3867 2.19836 22.6147 1.93372 22.9321 1.70984C23.249 1.48596 23.5269 1.33325 23.7646 1.25183C23.8442 1.21118 23.9331 1.1908 24.0322 1.1908L28.6426 1.1908L28.9399 1.22131C29.3364 1.22131 29.644 1.41467 29.8618 1.80139C29.9414 1.92358 29.9961 2.05591 30.0259 2.19836C30.0552 2.34082 30.0752 2.48328 30.085 2.62585C30.0952 2.76831 30.1001 2.84973 30.1001 2.87012L30.1001 3.08374C29.9614 3.91833 29.6094 4.80884 29.0439 5.75537C28.479 6.7019 27.7603 7.72473 26.8877 8.82385C26.0151 9.9231 25.4702 10.6456 25.252 10.9917C25.0732 11.236 24.9844 11.4598 24.9844 11.6635C24.9844 11.8263 25.0635 12.0095 25.2222 12.213L29.5645 17.8311C29.8027 18.1567 29.9214 18.5129 29.9214 18.8997C29.9214 19.3678 29.7432 19.7545 29.3862 20.0599C29.0293 20.3652 28.603 20.5382 28.1074 20.579L27.6016 20.6095L23.0806 20.6095C23.061 20.6095 23.021 20.6145 22.9614 20.6248C22.9023 20.6349 22.8623 20.64 22.8428 20.64C22.4062 20.64 22 20.4467 21.623 20.0599C21.4844 19.8971 20.5522 18.696 18.8271 16.457C18.728 16.3146 18.5894 16.1823 18.4111 16.0601C18.3315 16.3857 18.2275 16.854 18.0986 17.4646C17.9697 18.0753 17.8755 18.5129 17.8159 18.7775L17.7271 19.2965C17.5288 20.009 17.1123 20.4364 16.4775 20.579L16.061 20.6095L13.1465 20.6095C11.5005 20.6095 9.85986 19.8359 8.22412 18.2889C6.58789 16.7421 5.11572 14.7422 3.80713 12.2893C2.49854 9.83655 1.27881 6.98181 0.148926 3.72498C0.0498047 3.46033 0 3.16516 0 2.83948ZM17.8755 10.7474C17.459 10.7474 17.0825 10.6304 16.7451 10.3964C16.4082 10.1622 16.2397 9.84167 16.2397 9.43457L16.2397 2.41211C16.2397 2.005 16.1406 1.71497 15.9424 1.54187C15.7441 1.3689 15.397 1.28235 14.9014 1.28235L13.2061 1.34338C12.3535 1.34338 11.709 1.49609 11.2725 1.80139C12.145 2.22888 12.5815 2.9209 12.5815 3.87769L12.5815 9.25134C12.5415 9.76025 12.3433 10.1826 11.9863 10.5184C11.6294 10.8544 11.2329 11.0222 10.7969 11.0222C10.2017 11.0222 9.74561 10.7271 9.42871 10.1368C7.88184 7.73486 6.73193 5.4552 5.97852 3.29749L5.71045 2.50366L1.75488 2.47314C1.49707 2.47314 1.35352 2.4884 1.32373 2.51892C1.29395 2.54944 1.27881 2.63599 1.27881 2.77844C1.27881 2.96167 1.29883 3.15503 1.33838 3.35852L1.96289 5.06836C3.62842 9.48547 5.43799 12.9662 7.39111 15.5105C9.34424 18.0549 11.2627 19.3271 13.1465 19.3271L16.1206 19.3271C16.2397 19.3271 16.3291 19.2915 16.3887 19.2202C16.4478 19.149 16.4976 19.0116 16.5371 18.8081L16.5967 18.5027L17.1616 15.8159C17.3203 15.4495 17.459 15.2052 17.5781 15.0831C17.7964 14.8591 18.0542 14.7472 18.3516 14.7472C18.8271 14.7472 19.313 15.0424 19.8091 15.6327L22.3369 18.9302C22.4956 19.1948 22.6641 19.3271 22.8428 19.3271L27.7505 19.3271C28.3452 19.3271 28.6426 19.1744 28.6426 18.8691C28.6426 18.7673 28.6128 18.6655 28.5532 18.5638L24.2407 13.0374C23.9033 12.61 23.7349 12.152 23.7349 11.6635C23.7349 11.1749 23.8936 10.7068 24.2109 10.2589C24.4688 9.85181 24.9692 9.17505 25.7129 8.22852C26.4565 7.28198 27.106 6.39661 27.6611 5.57214C28.2163 4.7478 28.583 3.99976 28.7617 3.328L28.8506 2.93115C28.8311 2.89038 28.8213 2.82422 28.8213 2.73267C28.8213 2.64111 28.811 2.5647 28.7915 2.50366L24.1216 2.50366C23.8242 2.62585 23.5864 2.80896 23.4077 3.05322L23.2295 3.63342C22.7334 5.03784 21.4351 7.20569 19.333 10.1368C18.9165 10.5439 18.4307 10.7474 17.8755 10.7474Z" fill="#101010" fill-opacity="1.000000" fill-rule="nonzero"/>
</svg>
