<svg width="30.100098" height="30.099976" viewBox="0 0 30.1001 30.1" fill="none" xmlns="http://www.w3.org/2000/svg" xmlns:xlink="http://www.w3.org/1999/xlink">
	<desc>
			Created with Pixso.
	</desc>
	<defs/>
	<path id="Whatsapp" d="M7.90576 24.8235L8.99561 25.4601C10.833 26.5317 12.9229 27.0944 15.0498 27.09C17.4312 27.09 19.7593 26.3838 21.7393 25.0609C23.7192 23.7379 25.2622 21.8575 26.1733 19.6575C27.085 17.4575 27.3232 15.0366 26.8589 12.701C26.394 10.3656 25.2476 8.22021 23.5635 6.53638C21.8799 4.85266 19.7344 3.70593 17.3989 3.24133C15.0635 2.77673 12.6426 3.01526 10.4424 3.92651C8.24268 4.83777 6.3623 6.38098 5.03906 8.36096C3.71631 10.3409 3.01025 12.6687 3.01025 15.05C3.01025 17.2112 3.57764 19.2836 4.6416 21.1061L5.27637 22.1957L4.29395 25.8092L7.90576 24.8235ZM0.00585938 30.1L2.04102 22.6232C0.700195 20.3248 -0.00439453 17.7108 0 15.05C0 6.73792 6.73779 0 15.0498 0C23.3623 0 30.1001 6.73792 30.1001 15.05C30.1001 23.3621 23.3623 30.1 15.0498 30.1C12.3901 30.1042 9.77734 29.4004 7.47998 28.0607L0.00585938 30.1ZM9.61865 7.98853C9.82031 7.97351 10.0234 7.97351 10.2251 7.98254C10.3062 7.98853 10.3877 7.99756 10.4688 8.00659C10.708 8.03369 10.9717 8.17969 11.0601 8.38135C11.5088 9.39868 11.9453 10.4236 12.3667 11.4515C12.46 11.6803 12.4043 11.9738 12.2266 12.2598C12.1045 12.4531 11.9722 12.64 11.8311 12.8196C11.6606 13.0378 11.2949 13.4381 11.2949 13.4381C11.2949 13.4381 11.146 13.6157 11.2031 13.8369C11.2241 13.9213 11.2935 14.0431 11.3569 14.1455L11.4453 14.2885C11.8311 14.9312 12.3486 15.5828 12.9805 16.1968C13.1611 16.3713 13.3374 16.5504 13.5269 16.7175C14.2314 17.3391 15.0288 17.8463 15.8896 18.2225L15.8975 18.2256C16.0254 18.2812 16.0898 18.3113 16.2764 18.3911C16.3701 18.4302 16.4663 18.4648 16.564 18.4905C16.665 18.5161 16.7715 18.5114 16.8701 18.4764C16.9683 18.4417 17.0542 18.3784 17.1162 18.2948C18.2061 16.9749 18.3052 16.8892 18.3145 16.8892L18.3145 16.8921C18.3901 16.8215 18.48 16.7679 18.5781 16.735C18.6763 16.702 18.7803 16.6904 18.8833 16.7009C18.9736 16.707 19.0654 16.7235 19.1494 16.7612C19.9487 17.1268 21.2568 17.6973 21.2568 17.6973L22.1323 18.0901C22.2798 18.1608 22.4141 18.3279 22.4185 18.4889C22.4243 18.5897 22.4336 18.7523 22.3989 19.0503C22.3506 19.4401 22.2334 19.9081 22.1162 20.1534C22.0356 20.3208 21.9287 20.4742 21.7998 20.6079C21.6479 20.7675 21.4819 20.9125 21.3032 21.0414C21.2417 21.0879 21.1787 21.1331 21.1152 21.1769C20.9277 21.2957 20.7358 21.4061 20.5386 21.5079C20.1514 21.7137 19.7231 21.8319 19.2852 21.8541C19.0068 21.8691 18.728 21.8903 18.4482 21.8751C18.436 21.8751 17.5933 21.7443 17.5933 21.7443C15.4536 21.1814 13.4751 20.1271 11.8145 18.665C11.4741 18.3655 11.1597 18.0435 10.8374 17.7229C9.49805 16.391 8.48682 14.9536 7.87256 13.5962C7.55859 12.9299 7.38867 12.2046 7.37451 11.4681C7.36816 10.5543 7.66699 9.66455 8.22314 8.9397C8.33301 8.79822 8.43701 8.65076 8.61621 8.48071C8.80713 8.30005 8.92773 8.20374 9.05859 8.13757C9.23291 8.05029 9.42285 7.99915 9.61719 7.98706L9.61865 7.98853Z" fill="#101010" fill-opacity="1.000000" fill-rule="nonzero"/>
</svg>
